# xmcd
#
# Track frame offsets:
#	150
#	23609
#	45062
#	66680
#	85536
#	99544
#	123625
#	152293
#	173762
#	208691
#	231703
#	285660
#	292065
#	307081
#	317913
#	334123
#
# Disc length: 4784 seconds
#
# Revision: 0
# Processed by: cddbd v1.5.2PL0 Copyright (c) Steve Scherf et al.
# Submitted via: Collectorz.com Music Collector 1.0
#
DISCID=e512ae10
DTITLE=The Rolling Stones - You Can't Do That Baby (Live In Texas, June 1972)
DYEAR=2002
DGENRE=
TTITLE0=introduction - Brown Sugar
TTITLE1=Bitch
TTITLE2=Gimme Shelter
TTITLE3=Dead Flowers
TTITLE4=Happy
TTITLE5=Tumbling Dice
TTITLE6=Love In Vain
TTITLE7=Sweet Virginia
TTITLE8=You Can't Always Get What You Want
TTITLE9=All Down The Line
TTITLE10=Midnight Rambler
TTITLE11=band introduction
TTITLE12=Bye Bye Johnny
TTITLE13=Rip This Joint
TTITLE14=Jumping Jack Flash
TTITLE15=Street Fighting Man
EXTD=
EXTT0=
EXTT1=
EXTT2=
EXTT3=
EXTT4=
EXTT5=
EXTT6=
EXTT7=
EXTT8=
EXTT9=
EXTT10=
EXTT11=
EXTT12=
EXTT13=
EXTT14=
EXTT15=
PLAYORDER=
